<svg width="25" height="25" viewBox="0 0 25 25" fill="none" xmlns="http://www.w3.org/2000/svg">
<path d="M12.2973 14.9517L13.7403 16.3777L18.0693 12.0998L13.7403 7.82188L12.2973 9.24785L14.163 11.0915H6.47238V13.1081H14.163L12.2973 14.9517Z" fill="white"/>
<path fill-rule="evenodd" clip-rule="evenodd" d="M20.1809 19.9426C24.5641 15.6111 24.5641 8.5884 20.1809 4.25691C15.7976 -0.0745701 8.69103 -0.0745701 4.30781 4.25691C-0.0754208 8.5884 -0.0754208 15.6111 4.30781 19.9426C8.69103 24.2741 15.7976 24.2741 20.1809 19.9426ZM18.7379 18.5166C22.3241 14.9727 22.3241 9.22683 18.7379 5.68289C15.1516 2.13894 9.33709 2.13894 5.75081 5.68289C2.16454 9.22683 2.16454 14.9727 5.75081 18.5166C9.33709 22.0606 15.1516 22.0606 18.7379 18.5166Z" fill="white"/>
</svg>
